<svg xmlns="http://www.w3.org/2000/svg" viewBox="0 0 128 128" width="128" height="128">
  <!-- Discord-like background -->
  <rect width="128" height="128" rx="16" fill="#5865F2"/>
  
  <!-- Discord-like logo -->
  <path fill="white" d="M97.98 35.79c-7.73-3.57-16.02-6.21-24.68-7.73-0.31-0.05-0.62 0.09-0.79 0.36-2.13 3.78-4.01 7.77-5.6 11.9-6.03-0.9-12.01-0.9-17.91 0-1.59-4.13-3.52-8.12-5.65-11.9-0.17-0.27-0.48-0.41-0.79-0.36-8.66 1.52-16.95 4.16-24.68 7.73-0.13 0.05-0.24 0.15-0.31 0.28-15.72 23.5-20.02 46.44-17.91 69.09 0.04 0.39 0.26 0.74 0.6 0.95 9.56 7 18.82 11.25 27.9 14.06 0.31 0.09 0.65 0 0.87-0.24 2.39-3.26 4.52-6.71 6.34-10.34 0.17-0.34 0.05-0.74-0.26-0.95-3.04-1.15-5.93-2.56-8.73-4.16-0.35-0.21-0.39-0.71-0.09-0.97 0.59-0.44 1.17-0.9 1.73-1.37 0.17-0.15 0.41-0.17 0.62-0.09 31.09 14.19 64.76 14.19 95.55 0 0.21-0.09 0.44-0.07 0.62 0.09 0.56 0.47 1.14 0.93 1.73 1.37 0.31 0.26 0.26 0.76-0.09 0.97-2.8 1.63-5.69 3.01-8.73 4.16-0.31 0.21-0.43 0.62-0.26 0.95 1.86 3.63 3.98 7.08 6.34 10.34 0.21 0.24 0.56 0.33 0.87 0.24 9.12-2.81 18.38-7.06 27.94-14.06 0.34-0.21 0.56-0.56 0.6-0.95 2.54-26.28-4.25-49.03-17.95-69.09-0.07-0.13-0.18-0.23-0.31-0.28zM45.06 86.22c-5.5 0-10.02-5.05-10.02-11.25s4.44-11.25 10.02-11.25c5.62 0 10.1 5.09 10.02 11.25 0 6.2-4.44 11.25-10.02 11.25zm37.03 0c-5.5 0-10.02-5.05-10.02-11.25s4.44-11.25 10.02-11.25c5.62 0 10.1 5.09 10.02 11.25 0 6.2-4.4 11.25-10.02 11.25z"/>
  
  <!-- 24/7 text -->
  <text x="64" y="110" font-family="Arial, sans-serif" font-size="20" font-weight="bold" text-anchor="middle" fill="white">24/7</text>
</svg>