<svg xmlns="http://www.w3.org/2000/svg" viewBox="0 0 250 100" width="250" height="100">
  <!-- Background -->
  <rect width="250" height="100" rx="10" fill="#5865F2"/>
  
  <!-- Discord-like logo -->
  <path fill="white" d="M50.99 30.79c-3.87-1.79-8.01-3.11-12.34-3.87-0.16-0.03-0.31 0.05-0.4 0.18-1.07 1.89-2.01 3.89-2.8 5.95-3.02-0.45-6.01-0.45-8.96 0-0.8-2.07-1.76-4.06-2.83-5.95-0.09-0.14-0.24-0.21-0.4-0.18-4.33 0.76-8.48 2.08-12.34 3.87-0.07 0.03-0.12 0.08-0.16 0.14-7.86 11.75-10.01 23.22-8.96 34.55 0.02 0.2 0.13 0.37 0.3 0.48 4.78 3.5 9.41 5.63 13.95 7.03 0.16 0.05 0.33 0 0.44-0.12 1.2-1.63 2.26-3.36 3.17-5.17 0.09-0.17 0.03-0.37-0.13-0.48-1.52-0.58-2.97-1.28-4.37-2.08-0.18-0.11-0.2-0.36-0.05-0.49 0.3-0.22 0.59-0.45 0.87-0.69 0.09-0.08 0.21-0.09 0.31-0.05 15.55 7.1 32.38 7.1 47.78 0 0.11-0.05 0.22-0.04 0.31 0.05 0.28 0.24 0.57 0.47 0.87 0.69 0.16 0.13 0.13 0.38-0.05 0.49-1.4 0.82-2.85 1.51-4.37 2.08-0.16 0.11-0.22 0.31-0.13 0.48 0.93 1.82 1.99 3.54 3.17 5.17 0.11 0.12 0.28 0.17 0.44 0.12 4.56-1.41 9.19-3.53 13.97-7.03 0.17-0.11 0.28-0.28 0.3-0.48 1.27-13.14-2.13-24.52-8.98-34.55-0.04-0.07-0.09-0.12-0.16-0.14zM24.03 56.11c-2.75 0-5.01-2.53-5.01-5.63s2.22-5.63 5.01-5.63c2.81 0 5.05 2.55 5.01 5.63 0 3.1-2.22 5.63-5.01 5.63zm18.52 0c-2.75 0-5.01-2.53-5.01-5.63s2.22-5.63 5.01-5.63c2.81 0 5.05 2.55 5.01 5.63 0 3.1-2.2 5.63-5.01 5.63z" transform="translate(10, 10) scale(1.2)"/>
  
  <!-- Text -->
  <text x="130" y="45" font-family="Arial, sans-serif" font-size="20" font-weight="bold" text-anchor="middle" fill="white">Discord 24/7</text>
  <text x="130" y="70" font-family="Arial, sans-serif" font-size="16" font-weight="bold" text-anchor="middle" fill="white">Rich Presence</text>
</svg>